<?xml version="1.0" encoding="utf-8"?>
<!-- Generator: Adobe Illustrator 16.0.0, SVG Export Plug-In . SVG Version: 6.00 Build 0)  -->
<!DOCTYPE svg PUBLIC "-//W3C//DTD SVG 1.1//EN" "http://www.w3.org/Graphics/SVG/1.1/DTD/svg11.dtd">
<svg version="1.1" id="Layer_1" xmlns="http://www.w3.org/2000/svg" xmlns:xlink="http://www.w3.org/1999/xlink" x="0px" y="0px"
	 width="131px" height="38px" viewBox="0 0 131 38" enable-background="new 0 0 131 38" xml:space="preserve">
<g>
	<g>
		<g>
			<ellipse fill="#82BC00" cx="25.91" cy="18.973" rx="23.91" ry="18.504"/>
			<path fill="#FFFFFF" d="M47.15,18.939c-0.013-8.745-9.534-15.818-21.264-15.8c-3.179,0.005-6.195,0.53-8.901,1.468
				c-2.296-0.283-4.553,0.62-4.553,0.62s1.647,2.658,4.118,3.632c1.738,0.682,3.699,0.107,4.043-0.216
				c0-0.001-0.676-1.377-2.855-2.341c-0.842-0.373-2.008-0.709-3.301-0.893c0.871,0.078,1.61-0.018,3.37,0.542
				c2.449,0.78,3.095,2.242,3.095,2.242c0.141-1.378-0.782-2.35-1.689-2.871c2.088-0.545,4.333-0.844,6.677-0.847
				c10.991-0.017,19.914,6.46,19.924,14.468c0.004,2.478-0.845,4.811-2.347,6.854c-0.028-0.026-1.006-1.028-2.205-1.902
				c0.539-3.228-1.833-6.227-4.416-7.707c1.183-3.767-2.455-7.616-9.047-7.752c-0.98-0.008-2.323,0.043-3.196,0.136l0.365-2.328
				l-0.521,0.001c-1.829,0.014-2.508,1.186-2.706,1.646l-0.707,1.359c-4.1,1.138-6.348,3.083-6.549,3.257
				c-0.476,0.41-0.378,0.586,0.468,0.237c1.507-0.624,3.263-1.185,5.102-1.611l-5.53,10.178c-2.959-0.338-6.046,0.009-7.607,2.015
				c-0.588-1.366-0.906-2.817-0.908-4.324c-0.008-4.637,2.977-8.771,7.624-11.433c-1.177-0.768-2.241-0.145-2.576,0.097
				c-0.009,0.006-0.009,0.007-0.018,0.012c-3.935,2.88-6.374,6.891-6.367,11.325c0.003,2.071,0.541,4.051,1.515,5.862
				c-0.119,0.625-0.048,1.36,0.507,2.071c0.747,0.955,2.244,1.379,3.994,0.766c2.364-0.825,4.18-3.415,4.758-4.354
				c-1.707-0.28-2.382,0.341-2.623,0.662c-0.695,0.928-1.72,1.972-2.793,2.431c-2.195,0.942-3.615-1.045-1.881-2.644
				c1.174-1.083,3.502-1.309,5.603-1.044h0.052c2.655,0.352,4.701,1.154,5.147,1.336c-0.409,2.394-0.695,3.924-0.695,3.924
				l0.781,0.01c2.555-0.001,2.78-1.908,2.78-1.908c0.004,0.004,0.131-0.672,0.131-0.672c2.342,1.151,4.621,2.382,4.736,2.448
				c0.6,0.33,1.467,0.312,1.601-0.561l0.993-6.754c2.598-0.151,5.149-1.163,6.51-2.642c1.186,0.93,2.283,2.413,2.492,4.206
				c-1.451-0.63-3.09-1.006-4.773-0.745c-3.901,0.605-5.266,4.616-3.122,6.893c1.61,1.708,3.918,1.894,6.401,0.956
				c1.311-0.496,2.599-1.466,3.483-2.837c-0.186-0.188-0.539-0.521-0.938-0.768c-1.097-0.675-1.909,0.09-2.145,0.356
				c-0.694,0.872-1.646,1.508-2.641,1.751c-4.538,1.107-4.966-4.832-0.314-5.012c1.47-0.056,2.766,0.573,3.905,1.398
				c0,0,0,0.001,0,0.002c1.178,0.883,2.796,2.521,3.603,3.084c1.72,1.199,3.395,0.67,3.395,0.67s-0.29-0.477-0.771-1.085
				C46.139,24.486,47.154,21.8,47.15,18.939z M19.269,22.28c-0.881-0.284-2.532-0.627-2.875-0.695l4.36-8.047
				C20.299,16.22,19.735,19.533,19.269,22.28z M29.486,19.155l0.4-2.731c-3.011,0.023-3.445,2.083-3.493,2.409
				c-1.443-0.696-0.219-2.193,1.809-2.577c2.245-0.427,4.376,0.075,5.661,0.604C33.141,18.189,31.543,18.983,29.486,19.155z
				 M34.386,15.241c-1.142-0.299-2.665-0.571-4.252-0.515l0.533-3.625c-3.21-0.542-3.386,1.617-3.386,1.617
				c-0.114,0.775-0.244,1.66-0.383,2.6c-2.982,1.154-3.266,3.815-0.715,4.852c-0.258,1.745-0.657,4.446-0.663,4.441
				c-0.829-0.361-2.497-1.042-3.238-1.316l2.025-12.864C32.981,9.531,34.678,13.525,34.386,15.241z M40.493,28.828l-0.004,0.003
				c-3.613,2.842-8.844,4.63-14.557,4.64c-5.675,0.009-10.797-1.73-14.426-4.482c-0.358-0.272-1.268-0.889-2.411-0.332
				c3.89,3.746,9.988,6.157,16.839,6.146c6.877-0.01,12.987-2.455,16.862-6.238C41.703,28.022,40.75,28.637,40.493,28.828z"/>
		</g>
		<g>
			<g>
				<path fill="#6A813B" d="M100.307,3.875c-1.275,0-1.756,0.513-2.213,1.602c-0.645,1.914-1.248,3.697-1.371,4.065
					c-0.197-0.457-1.615-3.251-2.656-5.667h-3.84c1.812,3.875,4.553,9.508,4.768,9.97c-0.164,0.432-0.439,1.248-1.834,1.214
					l-1.416-0.031l-0.34,2.546c0.83,0.228,1.688,0.318,2.648,0.318c1.615,0,2.846-0.732,3.486-2.062l4.908-11.955H100.307z"/>
				<path fill="#6A813B" d="M85.596,8.846c0,0-1.752,0-2.086,0V6.722h4.393c1.037-0.046,1.623-0.617,1.623-1.642l0.002,0.004V3.873
					h-7.494c-1.545,0.032-2.258,1.003-2.258,2.143v11.697h6.096c3.736,0,5.064-2.389,5.064-4.434
					C90.936,11.072,89.285,8.846,85.596,8.846z M84.568,14.865c0,0-0.748,0-1.059,0v-3.171c0.324,0,1.512,0,1.512,0
					c1.287-0.003,1.98,0.693,1.98,1.545C87.002,13.937,86.752,14.865,84.568,14.865z"/>
				<path fill="#6A813B" d="M119.904,12.319c0.16-0.424,1.438-3.808,1.705-4.52c0.293,0.704,1.697,4.086,1.877,4.52H119.904z
					 M111.062,10.656c0.42-0.39,0.9-1.101,1.227-1.838c0.002-0.001,0.494-1.125,0.494-1.125c0.352-0.787,1.035-0.893,1.66-0.893
					h0.088l0.377-2.806l-0.234-0.039c-0.475-0.083-0.875-0.121-1.256-0.121c-1.607,0-2.846,0.731-3.486,2.062l-0.869,1.836
					c-0.463,0.988-1.037,1.41-1.92,1.41c0,0-0.531,0-0.775,0c0-0.355,0-5.269,0-5.269h-1.482c-1.521,0.032-2.232,0.974-2.252,2.089
					v11.751h3.734c0,0,0-5.366,0-5.723c0.211,0,0.557,0,0.557,0c1.217,0,2.232,0.88,3.025,2.611c0,0.001,1.434,3.112,1.434,3.112
					h6.482c0,0,0.924-2.44,1.006-2.664h5.762c0.088,0.215,1.104,2.664,1.104,2.664h4.033l-6.148-13.84h-2.574
					c-1.312,0-1.785,0.538-2.254,1.698l0,0l-4.152,10.305l-0.973-1.989C112.867,12.241,111.992,11.16,111.062,10.656z"/>
				<path fill="#6A813B" d="M76.479,10.306c0.949-0.453,2.084-1.508,2.084-3.064c0-2.404-2.811-3.481-5.596-3.481
					c-1.303,0-2.793,0.239-4.535,0.714l0.322,2.93c0,0,1.793-0.536,2.783-0.621c2.041-0.173,2.926,0.443,2.926,1.183
					c0,0.336,0,1.359-2.711,1.359h-1.307v2.827h1.092c2.189,0,3.006,0.347,3.006,1.281c0,0.927-0.934,1.43-2.771,1.398
					c-1.006,0-2.072-0.125-3.031-0.348c0.037,0.147,0.258,0.964,0.607,1.688c0.248,0.511,0.797,1.5,1.885,1.614
					c0,0,0.781,0.086,1.4,0.071c3.818-0.1,6.01-1.512,6.01-4.149C78.643,11.902,77.6,10.96,76.479,10.306z"/>
				<path fill="#6A813B" d="M62.891,3.874h-2.577c-1.245,0-1.733,0.49-2.179,1.526l-4.966,12.313h3.968c0,0,0.921-2.44,1.005-2.664
					h5.758c0.092,0.215,1.106,2.664,1.106,2.664h4.034L62.891,3.874z M59.175,12.319c0.16-0.424,1.436-3.808,1.706-4.52
					c0.292,0.704,1.696,4.086,1.875,4.52H59.175z"/>
			</g>
			<g>
				<path fill="#6A813B" d="M93.006,20.237c-1.277,0-1.76,0.514-2.215,1.602c-0.645,1.913-1.248,3.698-1.373,4.064
					c-0.195-0.457-1.613-3.251-2.656-5.666h-3.84c1.812,3.875,4.553,9.508,4.77,9.971c-0.164,0.432-0.439,1.246-1.832,1.214
					l-1.416-0.032L84.1,33.937c0.83,0.227,1.688,0.317,2.65,0.317c1.613,0,2.846-0.73,3.486-2.062l4.908-11.955H93.006z"/>
				<g>
					<path fill="#6A813B" d="M66.234,26.448c0.982-0.62,1.559-1.58,1.559-2.639c0-1.718-1.457-3.565-4.651-3.565h-3.769
						c-1.465,0.031-2.174,0.906-2.243,1.968v11.872h6.743c4.59,0,4.945-3.167,4.945-4.138
						C68.818,28.293,67.855,27.018,66.234,26.448z M60.866,23.092c0.305,0,1.565,0,1.565,0c1.126,0,1.527,0.663,1.527,1.23
						c0,0.586-0.401,1.27-1.527,1.27c0,0-1.261,0-1.565,0V23.092z M62.569,31.236c0,0-1.396,0-1.704,0v-2.797
						c0.323,0,2.158,0,2.158,0c0.899,0,1.862,0.35,1.862,1.328C64.886,30.697,64.506,31.236,62.569,31.236z"/>
					<path fill="#6A813B" d="M114.828,20.246h-2.576c-1.244,0-1.732,0.489-2.18,1.527l-4.963,12.312h3.967
						c0,0,0.922-2.439,1.006-2.664h5.758c0.09,0.215,1.105,2.664,1.105,2.664h4.033L114.828,20.246z M111.115,28.712
						c0.16-0.425,1.434-3.808,1.703-4.521c0.293,0.704,1.697,4.087,1.877,4.521H111.115z"/>
					<path fill="#6A813B" d="M81.859,23.193l0.375-2.807L82,20.348c-0.475-0.082-0.875-0.121-1.258-0.121
						c-1.604,0-2.844,0.732-3.484,2.062l-0.869,1.836c-0.463,0.988-1.035,1.41-1.92,1.41c0,0-0.529,0-0.775,0c0-0.354,0-5.27,0-5.27
						h-1.482c-1.533,0.032-2.242,0.988-2.254,2.116v11.725h3.736c0,0,0-5.366,0-5.724c0.213,0,0.559,0,0.559,0
						c1.213,0,2.23,0.879,3.023,2.612l1.432,3.111h4.158l-1.869-3.827c-0.801-1.646-1.678-2.726-2.607-3.23
						c0.42-0.39,0.902-1.101,1.229-1.839c0-0.001,0.494-1.125,0.494-1.125c0.352-0.785,1.035-0.892,1.66-0.892H81.859z"/>
					<path fill="#6A813B" d="M104.902,32.372c0.391-0.964,0.582-2.041,0.58-2.037c-1.012,0.396-2.223,0.922-3.949,0.883
						c-2.609,0-3.986-1.83-3.986-4.035c0-2.157,1.426-4.075,3.91-4.075c1.35,0,2.561,0.37,4.047,1.238l0.145,0.084v-3.438
						c-1.598-0.64-2.895-0.928-4.164-0.928c-2.092,0-4.004,0.732-5.379,2.061c-1.387,1.334-2.146,3.188-2.146,5.219
						c0,1.604,0.666,3.308,1.787,4.56c0.963,1.077,2.721,2.362,5.631,2.362c0.629,0,1.074-0.018,1.633-0.137
						C103.982,33.922,104.562,33.213,104.902,32.372z"/>
				</g>
			</g>
		</g>
	</g>
</g>
</svg>
