<?xml version="1.0" standalone="no"?>
<!DOCTYPE svg PUBLIC "-//W3C//DTD SVG 1.1//EN" "http://www.w3.org/Graphics/SVG/1.1/DTD/svg11.dtd" >
<svg xmlns="http://www.w3.org/2000/svg" xmlns:xlink="http://www.w3.org/1999/xlink" version="1.1">
<metadata>
Created by FontForge 20150715 at Sun Nov  1 14:39:04 2015
 By Jimmy Wärting
Copyright (c) 1990 Adobe Systems Incorporated. All Rights Reserved.Gill Sans is a trademark of The Monotype Corporation Plc.
</metadata>
<defs>
<font id="GillSansC-BoldItalic" horiz-adv-x="260" >
  <font-face 
    font-family="GillSansC"
    font-weight="700"
    font-style="italic"
    font-stretch="normal"
    units-per-em="1000"
    panose-1="0 0 8 0 0 0 0 0 0 0"
    ascent="759"
    descent="-241"
    x-height="454"
    cap-height="682"
    bbox="-82 -241 1110 934"
    underline-thickness="50"
    underline-position="-100"
    slope="-8"
    stemh="114"
    stemv="90"
    unicode-range="U+0020-2122"
  />
<missing-glyph horiz-adv-x="500" 
 />
    <glyph glyph-name=".notdef" horiz-adv-x="500" 
 />
    <glyph glyph-name="space" unicode=" " horiz-adv-x="278" 
 />
    <glyph glyph-name="space" unicode="&#xa0;" horiz-adv-x="278" 
 />
    <glyph glyph-name="exclam" unicode="!" 
d="M159 213h-80l17 304c4 75 16 131 38 153c13 13 30 21 51 21c40 0 64 -28 64 -73c0 -20 -7 -72 -18 -116zM101 160c46 0 84 -38 84 -84s-38 -84 -84 -84s-84 38 -84 84s38 84 84 84z" />
    <glyph glyph-name="quotedbl" unicode="&#x22;" horiz-adv-x="479" 
d="M437 461h-87l-24 134v121h135v-121zM88 716h135v-121l-24 -134h-87l-24 134v121z" />
    <glyph glyph-name="numbersign" unicode="#" horiz-adv-x="584" 
d="M-6 452h145l38 179h113l-38 -179h154l38 179h111l-38 -179h74v-111h-96l-27 -131h123v-111h-147l-38 -179h-111l37 179h-153l-37 -179h-114l38 179h-72v111h95l27 131h-122v111zM229 341l-27 -131h153l27 131h-153z" />
    <glyph glyph-name="dollar" unicode="$" horiz-adv-x="490" 
d="M473 594l-14 -99c-47 30 -78 43 -129 56l-25 -178c102 -59 139 -110 139 -184c0 -97 -74 -186 -193 -198l-16 -114h-78l16 118c-64 11 -103 26 -160 58l18 101c54 -35 105 -55 156 -62l27 194c-91 50 -139 100 -139 182c0 91 66 171 191 186l5 37h78l-6 -43
c49 -11 94 -30 130 -54zM233 417l19 137c-43 -13 -66 -37 -66 -71c0 -24 13 -43 47 -66zM286 242l-20 -147c44 16 66 43 66 79c0 28 -14 50 -46 68z" />
    <glyph glyph-name="percent" unicode="%" horiz-adv-x="719" 
d="M269 530c0 41 -32 75 -71 75c-40 0 -71 -32 -71 -75c0 -40 32 -75 71 -75c40 0 71 33 71 75zM359 530c0 -88 -72 -161 -161 -161s-161 73 -161 161c0 90 72 161 161 161s161 -71 161 -161zM651 691l-477 -699h-83l480 699h80zM707 152c0 -88 -72 -161 -161 -161
s-161 73 -161 161c0 90 72 161 161 161s161 -71 161 -161zM617 152c0 41 -32 75 -71 75c-40 0 -71 -32 -71 -75c0 -40 32 -75 71 -75c40 0 71 33 71 75z" />
    <glyph glyph-name="ampersand" unicode="&#x26;" horiz-adv-x="729" 
d="M556 306h132c-26 -65 -60 -117 -113 -172c38 -16 73 -17 89 -17h42l-46 -117c-51 -20 -144 -7 -211 45c-66 -38 -124 -54 -193 -54c-139 0 -241 88 -241 207c0 106 76 203 256 228c-13 177 89 265 223 265c99 0 168 -60 168 -145s-62 -162 -242 -193
c19 -70 33 -102 63 -148c32 27 58 62 73 101zM554 548c0 35 -28 60 -68 60c-55 0 -88 -40 -88 -108c0 -19 1 -31 6 -51c122 24 150 59 150 99zM165 210c0 -65 49 -111 117 -111c29 0 54 6 89 23c-42 67 -68 130 -83 202c-78 -14 -123 -56 -123 -114z" />
    <glyph glyph-name="quotesingle" unicode="'" horiz-adv-x="240" 
d="M194 461h-87l-24 134v121h135v-121z" />
    <glyph glyph-name="parenleft" unicode="(" horiz-adv-x="344" 
d="M275 691h102c-119 -149 -193 -370 -193 -579c0 -121 23 -245 64 -342h-103c-68 148 -101 266 -101 383c0 184 77 355 231 538z" />
    <glyph glyph-name="parenright" unicode=")" horiz-adv-x="344" 
d="M65 -230h-102c119 149 193 370 193 579c0 121 -23 245 -64 342h103c68 -148 101 -266 101 -383c0 -184 -77 -355 -231 -538z" />
    <glyph glyph-name="asterisk" unicode="*" horiz-adv-x="479" 
d="M329 301c8 -26 -1 -37 -26 -37h-61c-25 0 -37 7 -28 37l44 142l-12 11l-99 -102c-26 -26 -37 -31 -50 -6l-28 53c-12 23 -7 39 15 44l152 33v2l-152 34c-20 5 -27 20 -17 40l30 57c12 23 18 26 50 -6l99 -102l12 11l-44 142c-8 25 0 37 28 37h58c29 0 37 -10 29 -37
l-44 -142l12 -11l99 102c29 29 35 31 50 3l25 -45c16 -29 12 -43 -12 -49l-152 -34v-2l152 -33c23 -5 27 -23 14 -46l-26 -47c-15 -27 -21 -28 -43 -6l-107 110l-12 -11z" />
    <glyph glyph-name="plus" unicode="+" horiz-adv-x="584" 
d="M55 289v128h186v186h128v-186h186v-128h-186v-186h-128v186h-186z" />
    <glyph glyph-name="comma" unicode="," 
d="M-45 -145l15 61c43 10 71 33 86 72c-32 18 -48 43 -48 76c0 45 36 80 84 80c53 0 96 -47 96 -105c0 -90 -86 -184 -233 -184z" />
    <glyph glyph-name="hyphen" unicode="-" horiz-adv-x="344" 
d="M338 294l-20 -138h-312l19 138h313z" />
    <glyph glyph-name="hyphen" unicode="&#xad;" horiz-adv-x="344" 
d="M338 294l-20 -138h-312l19 138h313z" />
    <glyph glyph-name="period" unicode="." 
d="M95 160c46 0 84 -38 84 -84s-38 -84 -84 -84s-84 38 -84 84s38 84 84 84z" />
    <glyph glyph-name="slash" unicode="/" horiz-adv-x="281" 
d="M18 -9l169 700h103l-171 -700h-101z" />
    <glyph glyph-name="zero" unicode="0" horiz-adv-x="531" 
d="M506 434c0 -176 -85 -443 -269 -443c-115 0 -185 97 -185 257c0 187 84 443 268 443c116 0 186 -96 186 -257zM364 474c0 65 -26 90 -53 90c-89 0 -117 -265 -117 -353c0 -65 18 -93 54 -93c86 0 116 298 116 356z" />
    <glyph glyph-name="one" unicode="1" horiz-adv-x="531" 
d="M344 0h-141l73 501c-56 -29 -85 -41 -128 -53l30 125c39 14 89 33 189 118h78z" />
    <glyph glyph-name="two" unicode="2" horiz-adv-x="531" 
d="M440 139l-19 -139h-392v22c226 298 295 406 295 474c0 39 -31 68 -73 68c-36 0 -73 -16 -145 -62l19 137c47 36 94 52 152 52c119 0 189 -84 189 -182c0 -102 -60 -185 -196 -370h170z" />
    <glyph glyph-name="three" unicode="3" horiz-adv-x="531" 
d="M103 519l19 135c54 24 112 37 162 37c122 0 206 -73 206 -178c0 -82 -41 -141 -114 -165c52 -27 79 -76 79 -143c0 -127 -104 -214 -254 -214c-59 0 -103 11 -172 43l18 130c61 -32 106 -46 150 -46c61 0 110 40 110 91s-44 84 -111 84c-18 0 -29 -1 -52 -5l18 130
c30 -7 56 -11 77 -11c63 0 109 36 109 84c0 43 -34 73 -84 73c-44 0 -86 -12 -161 -45z" />
    <glyph glyph-name="four" unicode="4" horiz-adv-x="531" 
d="M478 691l-62 -441h74l-13 -93h-74l-22 -157h-141l22 157h-233v114l336 420h113zM305 476l-181 -226h151l32 224z" />
    <glyph glyph-name="five" unicode="5" horiz-adv-x="531" 
d="M486 682l-20 -139h-179l-16 -112c138 -15 186 -104 186 -201c0 -142 -104 -239 -257 -239c-68 0 -125 17 -177 51l40 127c56 -38 89 -51 135 -51c68 0 117 42 117 101c0 62 -50 100 -130 100c-25 0 -50 -2 -77 -6l62 369h316z" />
    <glyph glyph-name="six" unicode="6" horiz-adv-x="531" 
d="M449 682l-172 -266l2 -2c20 8 42 12 66 12c90 0 153 -72 153 -176c0 -146 -108 -259 -246 -259c-125 0 -208 85 -208 213c0 76 25 143 92 244l154 234h159zM356 240c0 42 -26 70 -65 70c-57 0 -105 -53 -105 -117c0 -44 28 -75 69 -75c54 0 101 57 101 122z" />
    <glyph glyph-name="seven" unicode="7" horiz-adv-x="531" 
d="M520 682l-269 -682h-149l215 543h-224l27 139h400z" />
    <glyph glyph-name="eight" unicode="8" horiz-adv-x="531" 
d="M379 352c62 -27 98 -84 98 -152c0 -117 -100 -209 -226 -209c-123 0 -211 79 -211 190c0 65 40 166 138 187c-47 34 -67 73 -67 129c0 108 94 194 212 194c105 0 182 -70 182 -165c0 -67 -39 -135 -126 -174zM363 511c0 31 -20 53 -50 53c-43 0 -68 -50 -68 -96
c0 -30 20 -50 50 -50c48 0 68 51 68 93zM335 219c0 43 -28 72 -68 72c-47 0 -85 -45 -85 -101c0 -43 27 -72 67 -72c48 0 86 44 86 101z" />
    <glyph glyph-name="nine" unicode="9" horiz-adv-x="531" 
d="M107 0l173 268l-2 2c-27 -10 -44 -13 -65 -13c-90 0 -155 73 -155 175c0 117 80 259 246 259c127 0 207 -83 207 -214c0 -72 -26 -144 -85 -233l-161 -244h-158zM369 491c0 42 -30 73 -70 73c-52 0 -99 -59 -99 -123c0 -40 27 -66 68 -66c70 0 101 71 101 116z" />
    <glyph glyph-name="colon" unicode=":" 
d="M149 462c46 0 84 -38 84 -84s-38 -84 -84 -84s-84 38 -84 84s38 84 84 84zM95 160c46 0 84 -38 84 -84s-38 -84 -84 -84s-84 38 -84 84s38 84 84 84z" />
    <glyph glyph-name="semicolon" unicode=";" 
d="M-45 -145l15 61c43 10 71 33 86 72c-32 18 -48 43 -48 76c0 45 36 80 84 80c53 0 96 -47 96 -105c0 -90 -86 -184 -233 -184zM149 462c46 0 84 -38 84 -84s-38 -84 -84 -84s-84 38 -84 84s38 84 84 84z" />
    <glyph glyph-name="less" unicode="&#x3c;" horiz-adv-x="584" 
d="M60 295v120l491 213v-137l-343 -136l343 -136v-137z" />
    <glyph glyph-name="equal" unicode="=" horiz-adv-x="584" 
d="M55 180v128h500v-128h-500zM55 398v128h500v-128h-500z" />
    <glyph glyph-name="greater" unicode="&#x3e;" horiz-adv-x="584" 
d="M550 295l-491 -213v137l343 136l-343 136v137l491 -213v-120z" />
    <glyph glyph-name="question" unicode="?" horiz-adv-x="323" 
d="M178 216h-106c3 160 153 219 153 296c0 28 -23 48 -57 48c-35 0 -83 -20 -130 -48l19 132c53 33 95 47 144 47c93 0 164 -70 164 -161c0 -161 -163 -178 -187 -314zM121 160c46 0 84 -38 84 -84s-38 -84 -84 -84s-84 38 -84 84s38 84 84 84z" />
    <glyph glyph-name="at" unicode="@" horiz-adv-x="979" 
d="M878 9h104c-70 -141 -222 -219 -429 -219c-231 0 -513 117 -513 440c0 214 130 498 501 498c246 0 415 -151 415 -373c0 -176 -129 -355 -323 -355c-52 0 -79 17 -89 56c-38 -38 -82 -56 -132 -56c-111 0 -188 84 -188 205c0 139 91 324 262 324c57 0 104 -23 131 -66
l12 54h129l-78 -370c-7 -35 1 -47 16 -47c51 0 172 109 172 257c0 123 -81 283 -335 283c-300 0 -405 -231 -405 -409c0 -243 195 -353 413 -353c158 0 267 43 337 131zM350 203c0 -69 35 -114 88 -114c114 0 152 173 152 238c0 70 -36 114 -91 114
c-100 0 -149 -134 -149 -238z" />
    <glyph glyph-name="A" unicode="A" horiz-adv-x="625" 
d="M461 691l120 -691h-149l-21 149h-212l-66 -149h-160l334 691h154zM361 548l-120 -302h158l-36 302h-2z" />
    <glyph glyph-name="B" unicode="B" horiz-adv-x="635" 
d="M140 682h217c176 0 227 -86 227 -165c0 -66 -34 -119 -99 -152c79 -23 127 -90 127 -167c0 -84 -68 -198 -234 -198h-334zM270 568l-23 -150h98c70 0 97 38 97 81c0 42 -30 69 -96 69h-76zM232 304l-29 -190h138c90 0 121 48 121 100c0 63 -57 90 -127 90h-103z" />
    <glyph glyph-name="C" unicode="C" horiz-adv-x="688" 
d="M688 666l-24 -126c-52 16 -105 25 -165 25c-219 0 -291 -159 -291 -265c0 -112 75 -183 195 -183c78 0 150 24 248 80l-21 -152c-84 -37 -159 -54 -240 -54c-198 0 -332 126 -332 312c0 229 182 388 445 388c60 0 117 -8 185 -25z" />
    <glyph glyph-name="D" unicode="D" horiz-adv-x="750" 
d="M136 682h227c272 0 352 -184 352 -332c0 -203 -140 -350 -322 -350h-352zM265 568l-63 -454h136c161 0 227 120 227 238c0 120 -80 216 -230 216h-70z" />
    <glyph glyph-name="E" unicode="E" horiz-adv-x="583" 
d="M564 682l-16 -114h-281l-23 -161h247l-16 -114h-247l-25 -179h354l-16 -114h-499l96 682h426z" />
    <glyph glyph-name="F" unicode="F" horiz-adv-x="490" 
d="M531 682l-17 -114h-247l-22 -162h213l-16 -114h-213l-42 -292h-145l96 682h393z" />
    <glyph glyph-name="G" unicode="G" horiz-adv-x="740" 
d="M737 666l-17 -126c-67 18 -119 25 -181 25c-200 0 -341 -105 -341 -261c0 -126 95 -187 217 -187c37 0 62 3 102 13l17 121h-125l15 108h270l-49 -348c-39 -11 -139 -20 -212 -20c-284 0 -385 159 -385 308c0 172 133 392 491 392c75 0 144 -9 198 -25z" />
    <glyph glyph-name="H" unicode="H" horiz-adv-x="792" 
d="M777 682l-96 -682h-145l40 278h-348l-39 -278h-145l96 682h145l-38 -270h347l38 270h145z" />
    <glyph glyph-name="I" unicode="I" horiz-adv-x="302" 
d="M286 682l-96 -682h-145l96 682h145z" />
    <glyph glyph-name="J" unicode="J" horiz-adv-x="302" 
d="M288 682l-101 -717c-21 -151 -110 -210 -269 -192l16 113c70 1 100 26 112 108l97 688h145z" />
    <glyph glyph-name="K" unicode="K" horiz-adv-x="646" 
d="M704 682l-306 -308l265 -374h-168l-257 362l-51 -362h-145l96 682h145l-41 -291l2 -2l288 293h172z" />
    <glyph glyph-name="L" unicode="L" horiz-adv-x="531" 
d="M281 682l-80 -568h310l-16 -114h-455l96 682h145z" />
    <glyph glyph-name="M" unicode="M" horiz-adv-x="948" 
d="M862 682l32 -682h-140l-21 461h-2l-253 -461h-69l-120 474h-2l-154 -474h-146l222 682h159l110 -429l230 429h154z" />
    <glyph glyph-name="N" unicode="N" horiz-adv-x="781" 
d="M767 682l-95 -682h-138l-280 462h-2l-64 -462h-145l96 682h145l275 -445h2l61 445h145z" />
    <glyph glyph-name="O" unicode="O" horiz-adv-x="833" 
d="M797 380c0 -235 -167 -389 -393 -389c-198 0 -344 130 -344 317c0 221 170 383 401 383c199 0 336 -128 336 -311zM647 370c0 113 -82 195 -196 195c-132 0 -241 -113 -241 -250c0 -117 80 -198 195 -198c135 0 242 112 242 253z" />
    <glyph glyph-name="P" unicode="P" horiz-adv-x="583" 
d="M141 682h223c122 0 225 -67 225 -203c0 -171 -130 -222 -247 -222h-115l-36 -257h-145zM271 574l-29 -210h61c96 0 136 49 136 109c0 57 -40 101 -133 101h-35z" />
    <glyph glyph-name="Q" unicode="Q" horiz-adv-x="833" 
d="M693 -94l-115 -114c-130 30 -240 118 -324 226c-81 43 -194 107 -194 290c0 221 171 383 402 383c201 0 335 -125 335 -314c0 -169 -102 -344 -324 -378c40 -50 139 -102 199 -80zM647 368c0 101 -69 197 -195 197c-135 0 -242 -111 -242 -253c0 -116 79 -195 194 -195
c142 0 243 119 243 251z" />
    <glyph glyph-name="R" unicode="R" horiz-adv-x="646" 
d="M138 682h234c173 0 230 -121 230 -205c0 -83 -48 -159 -152 -178v-2c37 -16 53 -42 72 -80l105 -217h-160l-65 138c-58 123 -74 138 -145 138h-31l-38 -276h-145zM267 568l-26 -186h72c98 0 139 49 139 99c0 54 -42 87 -114 87h-71z" />
    <glyph glyph-name="S" unicode="S" horiz-adv-x="521" 
d="M509 637l-20 -120c-44 32 -117 60 -169 60c-53 0 -96 -30 -96 -75c0 -98 251 -111 251 -302c0 -110 -78 -209 -231 -209c-99 0 -171 25 -232 65l22 119c55 -40 136 -70 193 -70c59 0 98 30 98 75c0 113 -251 126 -251 305c0 118 102 206 240 206c66 0 136 -19 195 -54z
" />
    <glyph glyph-name="T" unicode="T" horiz-adv-x="619" 
d="M666 682l-16 -114h-222l-80 -568h-145l80 568h-216l16 114h583z" />
    <glyph glyph-name="U" unicode="U" horiz-adv-x="750" 
d="M764 682l-60 -425c-31 -222 -185 -266 -314 -266c-234 0 -323 131 -298 303l56 388h145l-55 -386c-22 -154 92 -179 152 -179c77 0 155 38 171 152l58 413h145z" />
    <glyph glyph-name="V" unicode="V" horiz-adv-x="552" 
d="M609 682l-333 -691h-71l-142 691h138l74 -401h2l183 401h149z" />
    <glyph glyph-name="W" unicode="W" horiz-adv-x="948" 
d="M998 682l-336 -691h-59l-110 422l-230 -422h-60l-139 691h137l72 -401h2l217 401h71l102 -401h2l184 401h147z" />
    <glyph glyph-name="X" unicode="X" horiz-adv-x="677" 
d="M742 682l-302 -347l202 -335h-159l-137 227l-203 -227h-180l309 350l-200 332h159l136 -224l195 224h180z" />
    <glyph glyph-name="Y" unicode="Y" horiz-adv-x="563" 
d="M618 682l-257 -396l-40 -286h-145l40 286l-144 396h145l88 -263l158 263h155z" />
    <glyph glyph-name="Z" unicode="Z" horiz-adv-x="635" 
d="M699 682l-455 -568h339l-16 -114h-598l456 568h-331l17 114h588z" />
    <glyph glyph-name="bracketleft" unicode="[" horiz-adv-x="375" 
d="M418 682l-16 -114h-130l-94 -675h129l-16 -114h-260l127 903h260z" />
    <glyph glyph-name="backslash" unicode="\" horiz-adv-x="281" 
d="M290 -9h-101l-171 700h103z" />
    <glyph glyph-name="bracketright" unicode="]" horiz-adv-x="375" 
d="M-47 -221l16 114h130l94 675h-129l16 114h260l-127 -903h-260z" />
    <glyph glyph-name="asciicircum" unicode="^" horiz-adv-x="583" 
d="M68 292l184 390h108l179 -390h-139l-96 239l-96 -239h-140z" />
    <glyph glyph-name="underscore" unicode="_" horiz-adv-x="500" 
d="M-6 -75h512v-50h-512v50z" />
    <glyph glyph-name="grave" unicode="`" horiz-adv-x="333" 
d="M301 504h-73l-177 172h161z" />
    <glyph glyph-name="a" unicode="a" horiz-adv-x="552" 
d="M521 447l-63 -447h-135l6 42c-44 -35 -84 -51 -131 -51c-92 0 -159 81 -159 195c0 132 84 276 329 276c57 0 97 -4 153 -15zM342 132l30 216c-168 17 -193 -113 -193 -169c0 -55 25 -87 66 -87c31 0 66 14 97 40z" />
    <glyph glyph-name="b" unicode="b" horiz-adv-x="542" 
d="M261 682l-39 -274c47 40 80 54 123 54c97 0 169 -87 169 -204c0 -127 -85 -267 -292 -267c-85 0 -153 8 -191 15l95 676h135zM207 298l-28 -194c137 -19 194 44 194 148c0 61 -30 100 -77 100c-32 0 -56 -14 -89 -54z" />
    <glyph glyph-name="c" unicode="c" horiz-adv-x="469" 
d="M451 446l-17 -122c-27 10 -43 15 -56 18c-14 2 -25 2 -42 2c-91 0 -161 -60 -161 -139c0 -66 43 -104 118 -104c41 0 68 6 129 30l-16 -123c-39 -10 -95 -17 -140 -17c-136 0 -231 90 -231 219c0 143 127 252 291 252c44 0 97 -7 125 -16z" />
    <glyph glyph-name="d" unicode="d" horiz-adv-x="542" 
d="M548 682l-95 -676c-58 -10 -106 -15 -156 -15c-161 0 -263 84 -263 218c0 123 92 253 282 253c23 0 47 -3 66 -5l31 225h135zM332 106l33 236c-129 16 -191 -59 -191 -134c0 -66 46 -107 121 -107c13 0 23 2 37 5z" />
    <glyph glyph-name="e" unicode="e" horiz-adv-x="510" 
d="M468 208h-297c-7 -74 39 -117 104 -117c42 0 94 16 168 46l-24 -113c-56 -21 -111 -33 -158 -33c-138 0 -226 87 -226 221c0 139 109 250 246 250c142 0 219 -109 187 -254zM184 286h159c8 49 -19 83 -65 83c-44 0 -74 -26 -94 -83z" />
    <glyph glyph-name="f" unicode="f" horiz-adv-x="333" 
d="M456 668l-15 -109c-34 17 -53 22 -76 22c-58 0 -92 -40 -98 -127h87l-14 -100h-88l-78 -553h-135l78 553h-92l14 100h93c18 167 110 237 215 237c36 0 69 -7 109 -23z" />
    <glyph glyph-name="g" unicode="g" horiz-adv-x="490" 
d="M506 454l-13 -100h-73c13 -28 17 -46 17 -72c0 -81 -60 -166 -190 -166c-65 0 -82 -5 -82 -24c0 -52 274 -1 274 -174c0 -75 -49 -148 -234 -148c-174 0 -216 62 -216 112c0 44 36 78 112 102c-38 18 -63 51 -63 84c0 23 13 47 34 61c15 10 27 15 58 23
c-54 32 -79 74 -79 131c0 83 72 171 201 171h254zM312 298c0 40 -24 65 -63 65c-48 0 -74 -35 -74 -100c0 -40 24 -63 63 -63c59 0 74 51 74 98zM190 -43c-62 -8 -83 -28 -83 -53c0 -32 30 -47 100 -47c76 0 106 12 106 43c0 34 -42 39 -123 57z" />
    <glyph glyph-name="h" unicode="h" horiz-adv-x="552" 
d="M261 682l-40 -280c45 38 100 60 152 60c87 0 138 -61 123 -168l-41 -294h-135l41 291c4 32 -10 61 -42 61c-31 0 -69 -19 -113 -57l-41 -295h-135l96 682h135z" />
    <glyph glyph-name="i" unicode="i" 
d="M228 454l-64 -454h-135l64 454h135zM176 650c39 0 70 -31 70 -70s-31 -70 -70 -70s-70 31 -70 70s31 70 70 70z" />
    <glyph glyph-name="j" unicode="j" 
d="M225 454l-63 -446c-14 -101 -24 -149 -64 -189c-35 -35 -102 -61 -174 -43l16 108c58 0 74 30 83 95l67 475h135zM172 650c39 0 70 -31 70 -70s-31 -70 -70 -70s-70 31 -70 70s31 70 70 70z" />
    <glyph glyph-name="k" unicode="k" horiz-adv-x="509" 
d="M260 682l-60 -422l2 -2l162 196h167l-180 -216l175 -238h-164l-167 224l-31 -224h-135l96 682h135z" />
    <glyph glyph-name="l" unicode="l" 
d="M263 682l-96 -682h-135l96 682h135z" />
    <glyph glyph-name="m" unicode="m" horiz-adv-x="823" 
d="M227 454l-8 -58l2 -2c44 42 90 68 142 68c60 0 103 -31 115 -83c64 61 110 83 165 83c99 0 146 -77 131 -180l-39 -282h-135l37 261c9 64 -3 101 -36 101c-30 0 -72 -27 -110 -71l-41 -291h-135l35 260c9 69 -1 102 -39 102c-29 0 -64 -23 -107 -71l-41 -291h-135l64 454
h135z" />
    <glyph glyph-name="n" unicode="n" horiz-adv-x="552" 
d="M229 454l-8 -51c55 42 100 59 155 59c105 0 133 -88 120 -181l-39 -281h-135l38 271c6 44 -4 91 -40 91c-31 0 -68 -21 -114 -70l-41 -292h-135l64 454h135z" />
    <glyph glyph-name="o" unicode="o" horiz-adv-x="563" 
d="M522 248c0 -145 -112 -257 -258 -257c-129 0 -229 96 -229 219c0 138 118 252 262 252c130 0 225 -84 225 -214zM382 252c0 60 -36 100 -91 100c-88 0 -116 -104 -116 -150c0 -69 50 -101 90 -101c78 0 117 88 117 151z" />
    <glyph glyph-name="p" unicode="p" horiz-adv-x="583" 
d="M277 542l-12 -88c15 3 30 5 44 6s28 2 39 2c119 0 199 -79 199 -198c0 -152 -126 -273 -285 -273c-23 0 -37 3 -61 9l-32 -230h-135l72 515c-75 -56 -78 -97 -102 -97c-5 0 -8 4 -8 9c0 16 30 104 123 179l23 166h135zM251 356l-34 -246c16 -7 24 -9 41 -9
c114 0 149 95 149 160c0 79 -55 117 -156 95z" />
    <glyph glyph-name="q" unicode="q" horiz-adv-x="552" 
d="M521 460l-97 -690h-135l37 261c-51 -27 -90 -39 -132 -39c-95 0 -158 78 -158 196c0 146 90 272 311 272h174zM339 124l31 222c-114 9 -196 -44 -196 -155c0 -60 31 -99 79 -99c30 0 55 9 86 32z" />
    <glyph glyph-name="r" unicode="r" horiz-adv-x="365" 
d="M222 454l-10 -65l2 -2c42 52 77 75 110 75c27 0 50 -14 81 -50l-63 -125c-23 34 -42 49 -64 49c-32 0 -67 -36 -82 -66l-38 -270h-135l64 454h135z" />
    <glyph glyph-name="s" unicode="s" horiz-adv-x="375" 
d="M359 421l-11 -107c-49 25 -108 38 -131 38c-18 0 -30 -8 -30 -20c0 -50 151 -88 151 -198c0 -83 -70 -142 -170 -142c-54 0 -100 12 -157 41l19 101c38 -14 81 -32 124 -32c27 0 44 10 44 25c0 49 -152 98 -152 188c0 87 70 147 170 147c48 0 91 -12 143 -41z" />
    <glyph glyph-name="t" unicode="t" horiz-adv-x="365" 
d="M277 550l-19 -96h100l-18 -100h-100l-26 -147c-9 -51 -1 -95 37 -95c18 0 38 7 78 27v-119c-44 -21 -76 -29 -116 -29c-112 0 -155 95 -138 190l32 173h-92l17 100h92l16 96h137z" />
    <glyph glyph-name="u" unicode="u" horiz-adv-x="552" 
d="M529 454l-64 -454h-135l8 51c-45 -38 -98 -59 -147 -59c-104 0 -144 79 -130 174l41 288h135l-34 -241c-13 -91 4 -121 36 -121c35 0 74 23 114 66l41 296h135z" />
    <glyph glyph-name="v" unicode="v" horiz-adv-x="458" 
d="M481 454l-246 -462h-92l-116 462h131l57 -252h2l121 252h143z" />
    <glyph glyph-name="w" unicode="w" horiz-adv-x="729" 
d="M757 454l-258 -462h-87l-49 235l-131 -235h-85l-114 462h131l52 -263h2l136 263h81l49 -263h2l129 263h142z" />
    <glyph glyph-name="x" unicode="x" horiz-adv-x="531" 
d="M552 454l-198 -232l134 -222h-148l-74 142l-117 -142h-170l215 238l-130 216h149l68 -133l105 133h166z" />
    <glyph glyph-name="y" unicode="y" horiz-adv-x="490" 
d="M510 454l-330 -684h-142l132 272l-145 412h135l89 -265l120 265h141z" />
    <glyph glyph-name="z" unicode="z" horiz-adv-x="458" 
d="M457 454l-223 -342h197l-17 -112h-413l231 342h-184l16 112h393z" />
    <glyph glyph-name="braceleft" unicode="{" horiz-adv-x="385" 
d="M29 314c85 1 107 56 107 149v79c0 135 65 182 183 182h44v-117h-6c-88 0 -95 -8 -95 -111c0 -113 -4 -182 -85 -239c81 -57 85 -126 85 -239c0 -103 7 -111 95 -111h6v-117h-44c-118 0 -183 47 -183 182v79c0 93 -22 148 -107 149v114z" />
    <glyph glyph-name="bar" unicode="|" horiz-adv-x="281" 
d="M102 -221v903h109v-903h-109z" />
    <glyph glyph-name="braceright" unicode="}" horiz-adv-x="385" 
d="M356 200c-85 -1 -107 -56 -107 -149v-79c0 -135 -65 -182 -183 -182h-44v117h6c88 0 95 8 95 111c0 113 4 182 85 239c-81 57 -85 126 -85 239c0 103 -7 111 -95 111h-6v117h44c118 0 183 -47 183 -182v-79c0 -93 22 -148 107 -149v-114z" />
    <glyph glyph-name="asciitilde" unicode="~" horiz-adv-x="584" 
d="M29 175v131c62 51 108 72 160 72c86 0 169 -78 245 -78c44 0 83 20 146 74v-130c-36 -36 -104 -72 -158 -72c-81 0 -179 79 -241 79c-46 0 -84 -19 -152 -76z" />
    <glyph glyph-name="afii10051" unicode="&#x402;" horiz-adv-x="816" 
d="M422 -5l17 120l36 2c91 0 161 50 161 129c0 63 -44 91 -115 91c-49 0 -102 -31 -134 -64l-39 -273h-145l80 568h-216l16 114h583l-16 -114h-222l-21 -154c32 31 110 49 153 49c136 0 226 -77 226 -206c0 -143 -137 -266 -301 -266c-20 0 -42 2 -63 4z" />
    <glyph glyph-name="afii10052" unicode="&#x403;" horiz-adv-x="521" 
d="M42 0l96 682h430l-17 -114h-284l-80 -568h-145zM257 753l89 172h161l-177 -172h-73z" />
    <glyph glyph-name="quotesinglbase" unicode="&#x201a;" 
d="M-45 -145l15 61c43 10 71 33 86 72c-32 18 -48 43 -48 76c0 45 36 80 84 80c53 0 96 -47 96 -105c0 -90 -86 -184 -233 -184z" />
    <glyph glyph-name="afii10100" unicode="&#x453;" horiz-adv-x="405" 
d="M441 454l-29 -112h-199l-48 -342h-135l64 454h347zM174 516l89 172h161l-177 -172h-73z" />
    <glyph glyph-name="quotedblbase" unicode="&#x201e;" horiz-adv-x="490" 
d="M186 -145l15 61c43 10 71 33 86 72c-32 18 -48 43 -48 76c0 45 36 80 84 80c53 0 96 -47 96 -105c0 -90 -86 -184 -233 -184zM-41 -145l15 61c43 10 71 33 86 72c-32 18 -48 43 -48 76c0 45 36 80 84 80c53 0 96 -47 96 -105c0 -90 -86 -184 -233 -184z" />
    <glyph glyph-name="ellipsis" unicode="&#x2026;" horiz-adv-x="1000" 
d="M890 78c0 -48 -39 -87 -87 -87s-87 39 -87 87s39 87 87 87s87 -39 87 -87zM557 78c0 -48 -39 -87 -87 -87s-87 39 -87 87s39 87 87 87s87 -39 87 -87zM224 78c0 -48 -39 -87 -87 -87s-87 39 -87 87s39 87 87 87s87 -39 87 -87z" />
    <glyph glyph-name="dagger" unicode="&#x2020;" horiz-adv-x="531" 
d="M257 423c-5 43 -10 88 -10 137c0 77 24 131 82 131c36 0 63 -26 63 -75c0 -57 -36 -137 -63 -194c48 22 96 40 131 40c44 0 62 -31 62 -63c0 -36 -26 -69 -82 -69c-41 0 -81 14 -123 36c-5 -252 6 -508 -60 -574c-13 -13 -31 -22 -47 -22c-46 0 -70 40 -70 98
c0 96 64 332 110 498c-40 -16 -94 -36 -132 -36c-45 0 -68 35 -68 64c0 36 28 68 78 68c30 0 84 -14 129 -39z" />
    <glyph glyph-name="daggerdbl" unicode="&#x2021;" horiz-adv-x="510" 
d="M307 395c-13 -54 -8 -124 0 -163c-28 -52 -47 -121 -51 -166c40 21 92 43 128 43c37 0 68 -20 68 -67c0 -26 -18 -63 -64 -63c-37 0 -93 26 -132 50c-2 -59 20 -106 20 -163c0 -69 -41 -96 -76 -96c-39 0 -70 32 -70 78c0 67 58 138 70 182c-53 -29 -106 -51 -138 -51
c-41 0 -66 28 -66 65c0 31 22 66 72 66c44 0 89 -20 137 -44c6 75 3 117 -8 165c21 44 50 109 59 166c-51 -33 -96 -47 -128 -47c-51 0 -70 38 -70 68c0 32 21 62 64 62c40 0 79 -20 134 -49c2 46 -21 123 -21 167c0 54 39 93 77 93c45 0 70 -36 70 -76
c0 -66 -51 -111 -70 -184c50 25 98 49 138 49c44 0 64 -33 64 -63c0 -45 -33 -68 -67 -68c-39 0 -85 21 -140 46z" />
    <glyph glyph-name="perthousand" unicode="&#x2030;" horiz-adv-x="1083" 
d="M267 530c0 41 -32 75 -71 75c-40 0 -71 -32 -71 -75c0 -40 32 -75 71 -75c40 0 71 33 71 75zM357 530c0 -88 -72 -161 -161 -161s-161 73 -161 161c0 90 72 161 161 161s161 -71 161 -161zM649 691l-477 -699h-83l480 699h80zM1074 152c0 -88 -72 -161 -161 -161
s-161 73 -161 161c0 90 72 161 161 161s161 -71 161 -161zM984 152c0 41 -32 75 -71 75c-40 0 -71 -32 -71 -75c0 -40 32 -75 71 -75c40 0 71 33 71 75zM705 152c0 -88 -72 -161 -161 -161s-161 73 -161 161c0 90 72 161 161 161s161 -71 161 -161zM615 152
c0 41 -32 75 -71 75c-40 0 -71 -32 -71 -75c0 -40 32 -75 71 -75c40 0 71 33 71 75z" />
    <glyph glyph-name="afii10058" unicode="&#x409;" horiz-adv-x="928" 
d="M461 691l42 -244h113c262 0 292 -142 292 -219c0 -84 -57 -228 -280 -228h-192l-83 548h-2l-218 -548h-160l334 691h154zM523 333l38 -219h77c90 0 120 61 120 114c0 62 -53 105 -123 105h-112z" />
    <glyph glyph-name="guilsinglleft" unicode="&#x2039;" horiz-adv-x="271" 
d="M298 461l-164 -230l67 -231h-113l-73 255l151 206h132z" />
    <glyph glyph-name="afii10059" unicode="&#x40a;" horiz-adv-x="1137" 
d="M777 682l-38 -270h102c215 0 269 -107 269 -184c0 -89 -51 -228 -280 -228h-294l40 278h-348l-39 -278h-145l96 682h145l-38 -270h347l38 270h145zM823 278h-101l-25 -164h138c86 0 125 43 125 96c0 49 -52 68 -137 68z" />
    <glyph glyph-name="afii10061" unicode="&#x40c;" horiz-adv-x="699" 
d="M276 682l-37 -267h48c54 0 90 28 117 77l51 92c39 72 101 100 186 100c12 0 26 -1 38 -2l-35 -123c-34 0 -65 -13 -90 -58l-37 -68c-29 -52 -67 -86 -90 -98c57 -37 92 -95 124 -163l80 -172h-163l-66 147c-39 87 -79 143 -159 143h-22v-1l-41 -289h-145l96 682h145z
M349 749l89 172h161l-177 -172h-73z" />
    <glyph glyph-name="afii10060" unicode="&#x40b;" horiz-adv-x="755" 
d="M702 0h-145l25 250c6 57 -4 99 -81 99h-104l-49 -349h-145l80 568h-216l16 114h583l-16 -114h-222l-15 -105h114c139 0 204 -78 197 -169z" />
    <glyph glyph-name="afii10145" unicode="&#x40f;" horiz-adv-x="792" 
d="M777 682l-96 -682h-206l-125 -164l-41 164h-265l96 682h145l-77 -548h347l77 548h145z" />
    <glyph glyph-name="afii10099" unicode="&#x452;" horiz-adv-x="552" 
d="M67 630h52l7 52h135l-7 -52h204l-50 -112h-170l-17 -116c45 38 100 52 152 52c87 0 139 -53 123 -160l-54 -352c-20 -127 -95 -172 -161 -172c-41 0 -78 10 -98 30l13 101c13 -19 36 -22 58 -22c30 0 52 22 59 73l48 339c5 32 -10 53 -42 53c-31 0 -69 -11 -113 -49
l-41 -295h-135l73 518h-73z" />
    <glyph glyph-name="quoteleft" unicode="&#x2018;" 
d="M300 691l-15 -61c-43 -10 -71 -33 -86 -72c32 -18 48 -43 48 -76c0 -45 -36 -80 -84 -80c-53 0 -96 47 -96 105c0 90 86 184 233 184z" />
    <glyph glyph-name="quoteright" unicode="&#x2019;" 
d="M48 402l15 61c43 10 71 33 86 72c-32 18 -48 43 -48 76c0 45 36 80 84 80c53 0 96 -47 96 -105c0 -90 -86 -184 -233 -184z" />
    <glyph glyph-name="quotedblleft" unicode="&#x201c;" horiz-adv-x="490" 
d="M544 691l-15 -61c-43 -10 -71 -33 -86 -72c32 -18 48 -43 48 -76c0 -45 -36 -80 -84 -80c-53 0 -96 47 -96 105c0 90 86 184 233 184zM286 691l-15 -61c-43 -10 -71 -33 -86 -72c32 -18 48 -43 48 -76c0 -45 -36 -80 -84 -80c-53 0 -96 47 -96 105c0 90 86 184 233 184z
" />
    <glyph glyph-name="quotedblright" unicode="&#x201d;" horiz-adv-x="490" 
d="M295 402l15 61c43 10 71 33 86 72c-32 18 -48 43 -48 76c0 45 36 80 84 80c53 0 96 -47 96 -105c0 -90 -86 -184 -233 -184zM38 402l15 61c43 10 71 33 86 72c-32 18 -48 43 -48 76c0 45 36 80 84 80c53 0 96 -47 96 -105c0 -90 -86 -184 -233 -184z" />
    <glyph glyph-name="bullet" unicode="&#x2022;" horiz-adv-x="354" 
d="M188 485c80 0 144 -64 144 -144s-64 -144 -144 -144s-144 64 -144 144s64 144 144 144z" />
    <glyph glyph-name="endash" unicode="&#x2013;" horiz-adv-x="500" 
d="M506 298v-134h-512v134h512z" />
    <glyph glyph-name="emdash" unicode="&#x2014;" horiz-adv-x="1000" 
d="M1006 298v-134h-1012v134h1012z" />
    <glyph glyph-name="trademark" unicode="&#x2122;" horiz-adv-x="1000" 
d="M229 316v330h-123v70h324v-70h-120v-330h-81zM478 316v400h127l72 -276h2l72 276h127v-400h-77v319h-2l-85 -319h-73l-84 319h-2v-319h-77z" />
    <glyph glyph-name="afii10106" unicode="&#x459;" horiz-adv-x="756" 
d="M-42 -1l285 463h100l48 -184c48 40 114 56 162 56c122 0 184 -74 184 -155c0 -100 -98 -179 -258 -179h-162l-57 252h-3l-146 -252zM413 192l24 -92h50c64 0 102 37 102 81c0 37 -25 64 -75 64c-39 0 -84 -28 -101 -53z" />
    <glyph glyph-name="guilsinglright" unicode="&#x203a;" horiz-adv-x="271" 
d="M-21 0l164 230l-67 231h113l73 -255l-151 -206h-132z" />
    <glyph glyph-name="afii10107" unicode="&#x45a;" horiz-adv-x="841" 
d="M337 0l26 181h-172l-26 -181h-135l64 454h135l-24 -173h172l24 173h135l-22 -157c38 22 81 37 122 37c122 0 184 -74 184 -155c0 -100 -98 -179 -258 -179h-225zM597 245c-37 0 -78 -24 -97 -48l-14 -97h84c64 0 102 37 102 81c0 37 -25 64 -75 64z" />
    <glyph glyph-name="afii10109" unicode="&#x45c;" horiz-adv-x="552" 
d="M28 0l64 454h135l-26 -173h27c31 0 67 5 98 55l73 118h156l-78 -122c-39 -60 -86 -97 -107 -108c36 -17 68 -43 95 -98l61 -126h-145l-47 102c-27 59 -66 79 -119 79h-25l-27 -181h-135zM236 511l89 172h161l-177 -172h-73z" />
    <glyph glyph-name="afii10108" unicode="&#x45b;" horiz-adv-x="552" 
d="M67 630h52l7 52h135l-7 -52h204l-50 -112h-170l-17 -116c45 38 100 52 152 52c87 0 138 -53 123 -160l-41 -294h-135l41 291c4 32 -10 53 -42 53c-31 0 -69 -11 -113 -49l-41 -295h-135l73 518h-73z" />
    <glyph glyph-name="afii10193" unicode="&#x45f;" horiz-adv-x="567" 
d="M94 454h135l-49 -354h171l50 354h135l-64 -454h-144l-90 -130l-43 130h-165z" />
    <glyph glyph-name="afii10062" unicode="&#x40e;" horiz-adv-x="654" 
d="M325 177l217 505h170l-323 -649c-72 -145 -148 -225 -254 -225c-67 0 -93 7 -125 27l15 125c21 -18 62 -27 108 -27c35 0 75 17 102 68l-199 681h168zM279 762l89 172h161l-177 -172h-73z" />
    <glyph glyph-name="afii10110" unicode="&#x45e;" horiz-adv-x="490" 
d="M510 454l-330 -684h-142l132 272l-145 412h135l89 -265l120 265h141zM195 504l89 172h161l-177 -172h-73z" />
    <glyph glyph-name="afii10057" unicode="&#x408;" horiz-adv-x="302" 
d="M288 682l-101 -717c-21 -151 -110 -210 -269 -192l16 113c70 1 100 26 112 108l97 688h145z" />
    <glyph glyph-name="currency" unicode="&#xa4;" horiz-adv-x="552" 
d="M389 153c-24 -15 -61 -28 -105 -28c-33 0 -70 7 -104 27l-65 -65l-85 85l65 65c-17 27 -27 65 -27 105s11 75 27 105l-65 65l83 83l64 -64c31 14 62 27 107 27c38 0 79 -12 105 -27l65 65l85 -85l-65 -65c17 -31 27 -62 27 -104c0 -40 -10 -72 -28 -107l65 -65l-83 -83z
M284 441c-55 0 -99 -44 -99 -99s44 -100 99 -100s100 45 100 100s-45 99 -100 99z" />
    <glyph glyph-name="afii10050" unicode="&#x490;" horiz-adv-x="521" 
d="M42 0l96 682h309l149 78l-45 -192h-284l-80 -568h-145z" />
    <glyph glyph-name="brokenbar" unicode="&#xa6;" horiz-adv-x="281" 
d="M102 -221v397h109v-397h-109zM102 342v340h109v-340h-109z" />
    <glyph glyph-name="section" unicode="&#xa7;" horiz-adv-x="552" 
d="M525 534l-120 -21c-1 44 -26 68 -71 68c-39 0 -66 -22 -66 -53c0 -88 240 -130 240 -302c0 -82 -38 -133 -123 -180c29 -42 41 -73 41 -109c0 -80 -61 -167 -208 -167c-114 0 -189 41 -193 159l114 31c5 -51 29 -74 77 -74c42 0 70 21 70 53c0 96 -243 137 -243 311
c0 73 43 131 132 174c-28 43 -38 72 -38 107c0 97 83 160 211 160c126 0 174 -61 177 -157zM241 354c-38 -23 -69 -52 -69 -90c0 -56 64 -83 147 -150c42 23 62 59 62 91c0 66 -74 98 -140 149z" />
    <glyph glyph-name="afii10023" unicode="&#x401;" horiz-adv-x="583" 
d="M564 682l-16 -114h-281l-23 -161h247l-16 -114h-247l-25 -179h354l-16 -114h-499l96 682h426zM467 887c36 0 65 -29 65 -65s-29 -66 -65 -66s-66 30 -66 66s30 65 66 65zM265 887c36 0 65 -29 65 -65s-29 -66 -65 -66s-66 30 -66 66s30 65 66 65z" />
    <glyph glyph-name="copyright" unicode="&#xa9;" horiz-adv-x="740" 
d="M460 301l79 -27c-25 -82 -83 -126 -164 -126c-115 0 -189 80 -189 205c0 130 73 211 190 211c82 0 134 -38 163 -119l-79 -19c-18 47 -45 68 -87 68c-64 0 -101 -50 -101 -138c0 -87 36 -139 97 -139c45 0 75 28 91 84zM370 730c207 0 374 -167 374 -374
s-167 -374 -374 -374s-374 167 -374 374s167 374 374 374zM370 656c-166 0 -300 -134 -300 -300s134 -301 300 -301s301 135 301 301s-135 300 -301 300z" />
    <glyph glyph-name="afii10053" unicode="&#x404;" horiz-adv-x="688" 
d="M492 400l-17 -114h-266c6 -104 79 -169 194 -169c78 0 150 24 248 80l-21 -152c-84 -37 -159 -54 -240 -54c-198 0 -332 126 -332 312c0 229 182 388 445 388c60 0 117 -8 185 -25l-24 -126c-52 16 -105 25 -165 25c-156 0 -237 -81 -271 -165h264z" />
    <glyph glyph-name="guillemotleft" unicode="&#xab;" horiz-adv-x="542" 
d="M572 461l-164 -230l67 -231h-113l-73 255l151 206h132zM299 461l-164 -230l67 -231h-113l-73 255l151 206h132z" />
    <glyph glyph-name="logicalnot" unicode="&#xac;" horiz-adv-x="584" 
d="M426 121v213h-371v128h499v-341h-128z" />
    <glyph glyph-name="sfthyphen" horiz-adv-x="584" 
d="M55 289v128h500v-128h-500z" />
    <glyph glyph-name="registered" unicode="&#xae;" horiz-adv-x="740" 
d="M546 156h-99l-32 65c-14 28 -38 62 -54 78s-30 20 -65 20h-15v-163h-80v397h196c85 0 125 -48 125 -111c0 -60 -40 -103 -107 -111v-2c34 -12 45 -23 85 -93zM281 382h83c55 0 73 27 73 55c0 35 -28 54 -82 54h-74v-109zM370 730c207 0 374 -167 374 -374
s-167 -374 -374 -374s-374 167 -374 374s167 374 374 374zM370 656c-166 0 -300 -134 -300 -300s134 -301 300 -301s301 135 301 301s-135 300 -301 300z" />
    <glyph glyph-name="afii10056" unicode="&#x407;" horiz-adv-x="302" 
d="M286 682l-96 -682h-145l96 682h145zM327 887c36 0 65 -29 65 -65s-29 -66 -65 -66s-66 30 -66 66s30 65 66 65zM125 887c36 0 65 -29 65 -65s-29 -66 -65 -66s-66 30 -66 66s30 65 66 65z" />
    <glyph glyph-name="degree" unicode="&#xb0;" horiz-adv-x="396" 
d="M385 572c0 -86 -70 -156 -156 -156s-156 70 -156 156s70 156 156 156s156 -70 156 -156zM299 572c0 39 -31 70 -70 70s-70 -31 -70 -70s31 -70 70 -70s70 31 70 70z" />
    <glyph glyph-name="plusminus" unicode="&#xb1;" horiz-adv-x="584" 
d="M55 0v128h500v-128h-500zM55 360v128h186v186h128v-186h186v-128h-186v-186h-128v186h-186z" />
    <glyph glyph-name="afii10055" unicode="&#x406;" horiz-adv-x="302" 
d="M286 682l-96 -682h-145l96 682h145z" />
    <glyph glyph-name="afii10103" unicode="&#x456;" 
d="M228 454l-64 -454h-135l64 454h135zM176 650c39 0 70 -31 70 -70s-31 -70 -70 -70s-70 31 -70 70s31 70 70 70z" />
    <glyph glyph-name="afii10098" unicode="&#x491;" horiz-adv-x="405" 
d="M456 515l-44 -173h-199l-48 -342h-135l64 454h235z" />
    <glyph glyph-name="mu" unicode="&#xb5;" horiz-adv-x="615" 
d="M143 454h133l-59 -247c-16 -66 -3 -126 79 -126c66 0 102 45 118 111l64 262h133l-109 -454h-120l11 42l-2 2c-38 -42 -77 -53 -110 -53c-39 0 -82 15 -102 59h-2l-54 -225h-133z" />
    <glyph glyph-name="mu" unicode="&#x3bc;" horiz-adv-x="615" 
d="M143 454h133l-59 -247c-16 -66 -3 -126 79 -126c66 0 102 45 118 111l64 262h133l-109 -454h-120l11 42l-2 2c-38 -42 -77 -53 -110 -53c-39 0 -82 15 -102 59h-2l-54 -225h-133z" />
    <glyph glyph-name="paragraph" unicode="&#xb6;" horiz-adv-x="552" 
d="M310 -197h-119v511c-121 9 -192 83 -192 198c0 107 62 204 218 204h334v-128h-55v-785h-119v785h-67v-785z" />
    <glyph glyph-name="periodcentered" unicode="&#xb7;" 
d="M233 346c0 -48 -39 -87 -87 -87s-87 39 -87 87s39 87 87 87s87 -39 87 -87z" />
    <glyph glyph-name="periodcentered" unicode="&#x2219;" 
d="M233 346c0 -48 -39 -87 -87 -87s-87 39 -87 87s39 87 87 87s87 -39 87 -87z" />
    <glyph glyph-name="afii10071" unicode="&#x451;" horiz-adv-x="510" 
d="M468 208h-297c-7 -74 39 -117 104 -117c42 0 94 16 168 46l-24 -113c-56 -21 -111 -33 -158 -33c-138 0 -226 87 -226 221c0 139 109 250 246 250c142 0 219 -109 187 -254zM184 286h159c8 49 -19 83 -65 83c-44 0 -74 -26 -94 -83zM396 663c36 0 65 -29 65 -65
s-29 -66 -65 -66s-66 30 -66 66s30 65 66 65zM194 663c36 0 65 -29 65 -65s-29 -66 -65 -66s-66 30 -66 66s30 65 66 65z" />
    <glyph glyph-name="afii61352" unicode="&#x2116;" horiz-adv-x="1127" 
d="M188 0h-145l96 682h145l275 -445h2l43 317c12 89 56 128 144 128h89l-13 -105h-24c-21 0 -47 0 -53 -36l-75 -541h-138l-280 462h-2zM1104 287c-12 -86 -92 -156 -178 -156s-146 70 -134 156s92 156 178 156s146 -70 134 -156zM1018 287c5 39 -21 70 -60 70
s-75 -31 -80 -70s21 -70 60 -70s75 31 80 70zM1057 106l-15 -50h-286l15 50h286z" />
    <glyph glyph-name="afii10101" unicode="&#x454;" horiz-adv-x="464" 
d="M13 6l17 122c48 -18 58 -20 98 -20c66 0 121 32 146 79h-154l20 78h147c-7 55 -48 86 -116 86c-41 0 -68 -6 -129 -30l16 123c39 10 95 17 140 17c136 0 231 -90 231 -219c0 -143 -127 -252 -291 -252c-44 0 -97 7 -125 16z" />
    <glyph glyph-name="guillemotright" unicode="&#xbb;" 
d="M225 454l-63 -446c-14 -101 -24 -149 -64 -189c-35 -35 -102 -61 -174 -43l16 108c58 0 74 30 83 95l67 475h135zM172 650c39 0 70 -31 70 -70s-31 -70 -70 -70s-70 31 -70 70s31 70 70 70z" />
    <glyph glyph-name="afii10105" unicode="&#x458;" 
d="M225 454l-63 -446c-14 -101 -24 -149 -64 -189c-35 -35 -102 -61 -174 -43l16 108c58 0 74 30 83 95l67 475h135zM172 650c39 0 70 -31 70 -70s-31 -70 -70 -70s-70 31 -70 70s31 70 70 70z" />
    <glyph glyph-name="afii10054" unicode="&#x405;" horiz-adv-x="521" 
d="M509 637l-20 -120c-44 32 -117 60 -169 60c-53 0 -96 -30 -96 -75c0 -98 251 -111 251 -302c0 -110 -78 -209 -231 -209c-99 0 -171 25 -232 65l22 119c55 -40 136 -70 193 -70c59 0 98 30 98 75c0 113 -251 126 -251 305c0 118 102 206 240 206c66 0 136 -19 195 -54z
" />
    <glyph glyph-name="afii10102" unicode="&#x455;" horiz-adv-x="375" 
d="M359 421l-11 -107c-49 25 -108 38 -131 38c-18 0 -30 -8 -30 -20c0 -50 151 -88 151 -198c0 -83 -70 -142 -170 -142c-54 0 -100 12 -157 41l19 101c38 -14 81 -32 124 -32c27 0 44 10 44 25c0 49 -152 98 -152 188c0 87 70 147 170 147c48 0 91 -12 143 -41z" />
    <glyph glyph-name="afii10104" unicode="&#x457;" 
d="M228 454l-64 -454h-135l64 454h135zM271 663c36 0 65 -29 65 -65s-29 -66 -65 -66s-66 30 -66 66s30 65 66 65zM69 663c36 0 65 -29 65 -65s-29 -66 -65 -66s-66 30 -66 66s30 65 66 65z" />
    <glyph glyph-name="afii10017" unicode="&#x410;" horiz-adv-x="625" 
d="M461 691l120 -691h-149l-21 149h-212l-66 -149h-160l334 691h154zM361 548l-120 -302h158l-36 302h-2z" />
    <glyph glyph-name="afii10018" unicode="&#x411;" horiz-adv-x="636" 
d="M613 682l-38 -114h-305l-19 -134h70c262 0 289 -146 289 -223c0 -84 -78 -211 -301 -211h-265l96 682h473zM236 320l-33 -206h121c90 0 136 56 136 108c0 63 -54 98 -124 98h-100z" />
    <glyph glyph-name="afii10019" unicode="&#x412;" horiz-adv-x="635" 
d="M140 682h217c176 0 227 -86 227 -165c0 -66 -34 -119 -99 -152c79 -23 127 -90 127 -167c0 -84 -68 -198 -234 -198h-334zM270 568l-23 -150h98c70 0 97 38 97 81c0 42 -30 69 -96 69h-76zM232 304l-29 -190h138c90 0 121 48 121 100c0 63 -57 90 -127 90h-103z" />
    <glyph glyph-name="afii10020" unicode="&#x413;" horiz-adv-x="521" 
d="M42 0l96 682h430l-17 -114h-284l-80 -568h-145z" />
    <glyph glyph-name="afii10021" unicode="&#x414;" horiz-adv-x="776" 
d="M748 114l-31 -278h-136l21 164h-469l-32 -164h-136l56 278h96l279 577h154l100 -577h98zM450 548l-181 -434h238l-55 434h-2z" />
    <glyph glyph-name="afii10022" unicode="&#x415;" horiz-adv-x="583" 
d="M564 682l-16 -114h-281l-23 -161h247l-16 -114h-247l-25 -179h354l-16 -114h-499l96 682h426z" />
    <glyph glyph-name="afii10024" unicode="&#x416;" horiz-adv-x="1110" 
d="M702 682l-37 -267h31c54 0 90 28 117 77l51 92c39 72 101 100 186 100c12 0 26 -1 38 -2l-35 -123c-34 0 -65 -13 -90 -58l-37 -68c-29 -52 -67 -86 -90 -98c57 -37 92 -95 124 -163l80 -172h-163l-66 147c-39 87 -79 143 -159 143h-5l-41 -290h-145l41 290h-5
c-60 0 -130 -59 -192 -143l-108 -147h-177l132 172c66 86 112 139 200 167c-27 23 -65 60 -76 99l-17 63c-15 55 -44 58 -84 58l10 123c13 1 15 2 27 2c85 0 136 -22 157 -100l25 -92c14 -50 36 -77 97 -77h28l38 267h145z" />
    <glyph glyph-name="afii10025" unicode="&#x417;" horiz-adv-x="555" 
d="M134 282l28 125h46c94 0 145 35 145 91c0 36 -32 67 -120 67c-36 0 -83 -8 -143 -32l9 122c41 16 118 36 192 36c163 0 241 -83 241 -164c0 -99 -78 -156 -142 -178c68 -37 102 -78 102 -155c0 -146 -159 -203 -267 -203c-77 0 -146 7 -215 25l21 134
c46 -22 109 -33 153 -33c98 0 138 28 138 86c0 61 -56 79 -135 79h-53z" />
    <glyph glyph-name="afii10026" unicode="&#x418;" horiz-adv-x="792" 
d="M777 682l-96 -682h-145l64 439l-478 -439h-78l96 682h145l-62 -452l466 452h88z" />
    <glyph glyph-name="afii10027" unicode="&#x419;" horiz-adv-x="792" 
d="M777 682l-96 -682h-145l64 439l-478 -439h-78l96 682h145l-62 -452l466 452h88zM409 738l89 172h161l-177 -172h-73z" />
    <glyph glyph-name="afii10028" unicode="&#x41a;" horiz-adv-x="693" 
d="M268 682l-37 -267h48c54 0 90 28 117 77l51 92c39 72 101 100 186 100c12 0 26 -1 38 -2l-35 -123c-34 0 -65 -13 -90 -58l-37 -68c-29 -52 -67 -86 -90 -98c57 -37 92 -95 124 -163l80 -172h-163l-66 147c-39 87 -79 143 -159 143h-22v-1l-41 -289h-145l96 682h145z" />
    <glyph glyph-name="afii10029" unicode="&#x41b;" horiz-adv-x="625" 
d="M461 691l120 -691h-148l-70 515h-2l-222 -515h-166l334 691h154z" />
    <glyph glyph-name="afii10030" unicode="&#x41c;" horiz-adv-x="948" 
d="M862 682l32 -682h-140l-21 461h-2l-253 -461h-69l-120 474h-2l-154 -474h-146l222 682h159l110 -429l230 429h154z" />
    <glyph glyph-name="afii10031" unicode="&#x41d;" horiz-adv-x="792" 
d="M777 682l-96 -682h-145l40 278h-348l-39 -278h-145l96 682h145l-38 -270h347l38 270h145z" />
    <glyph glyph-name="afii10032" unicode="&#x41e;" horiz-adv-x="833" 
d="M797 380c0 -235 -167 -389 -393 -389c-198 0 -344 130 -344 317c0 221 170 383 401 383c199 0 336 -128 336 -311zM647 370c0 113 -82 195 -196 195c-132 0 -241 -113 -241 -250c0 -117 80 -198 195 -198c135 0 242 112 242 253z" />
    <glyph glyph-name="afii10033" unicode="&#x41f;" horiz-adv-x="792" 
d="M777 682l-96 -682h-145l76 548h-346l-77 -548h-145l96 682h637z" />
    <glyph glyph-name="afii10034" unicode="&#x420;" horiz-adv-x="583" 
d="M141 682h223c122 0 225 -67 225 -203c0 -171 -130 -222 -247 -222h-115l-36 -257h-145zM271 574l-29 -210h61c96 0 136 49 136 109c0 57 -40 101 -133 101h-35z" />
    <glyph glyph-name="afii10035" unicode="&#x421;" horiz-adv-x="688" 
d="M688 666l-24 -126c-52 16 -105 25 -165 25c-219 0 -291 -159 -291 -265c0 -112 75 -183 195 -183c78 0 150 24 248 80l-21 -152c-84 -37 -159 -54 -240 -54c-198 0 -332 126 -332 312c0 229 182 388 445 388c60 0 117 -8 185 -25z" />
    <glyph glyph-name="afii10036" unicode="&#x422;" horiz-adv-x="619" 
d="M666 682l-16 -114h-222l-80 -568h-145l80 568h-216l16 114h583z" />
    <glyph glyph-name="afii10037" unicode="&#x423;" horiz-adv-x="654" 
d="M324 177l217 505h170l-323 -649c-72 -145 -148 -225 -254 -225c-67 0 -93 7 -125 27l15 125c21 -18 62 -27 108 -27c35 0 75 17 102 68l-199 681h168z" />
    <glyph glyph-name="afii10038" unicode="&#x424;" horiz-adv-x="825" 
d="M395 682h145l-11 -77h35c148 0 235 -91 235 -224c0 -174 -127 -304 -320 -304h-24l-10 -77h-145l11 77h-35c-148 0 -235 91 -235 224c0 174 127 304 320 304h23zM512 497l-41 -313h23c75 0 155 79 155 183c0 85 -35 130 -108 130h-29zM326 184l44 313h-23
c-75 0 -155 -79 -155 -183c0 -85 35 -130 108 -130h26z" />
    <glyph glyph-name="afii10039" unicode="&#x425;" horiz-adv-x="677" 
d="M742 682l-302 -347l202 -335h-159l-137 227l-203 -227h-180l309 350l-200 332h159l136 -224l195 224h180z" />
    <glyph glyph-name="afii10040" unicode="&#x426;" horiz-adv-x="798" 
d="M140 682h145l-79 -548h304l78 548h145l-77 -548h135l-47 -298h-146l30 164h-584z" />
    <glyph glyph-name="afii10041" unicode="&#x427;" horiz-adv-x="655" 
d="M640 682l-96 -682h-145l36 255c-34 -14 -95 -30 -142 -30c-134 0 -249 54 -249 192c0 12 5 63 7 76l25 189h154l-25 -145c-4 -25 -9 -59 -9 -94c0 -58 42 -84 120 -84c60 0 98 9 139 29l40 294h145z" />
    <glyph glyph-name="afii10042" unicode="&#x428;" horiz-adv-x="1045" 
d="M435 134l77 548h145l-79 -548h229l78 548h145l-97 -682h-889l96 682h145l-79 -548h229z" />
    <glyph glyph-name="afii10043" unicode="&#x429;" horiz-adv-x="1095" 
d="M435 134l77 548h145l-79 -548h229l78 548h145l-77 -548h135l-47 -298h-146l30 164h-881l96 682h145l-79 -548h229z" />
    <glyph glyph-name="afii10044" unicode="&#x42a;" horiz-adv-x="695" 
d="M353 682l-37 -235h81c247 0 280 -131 280 -208c0 -84 -49 -239 -272 -239h-300l92 568h-211l77 114h290zM300 333l-36 -219h133c90 0 130 71 130 123c0 63 -53 96 -137 96h-90z" />
    <glyph glyph-name="afii10045" unicode="&#x42b;" horiz-adv-x="949" 
d="M933 682l-96 -682h-145l96 682h145zM140 682h147l-32 -235h81c247 0 280 -131 280 -208c0 -84 -49 -239 -272 -239h-300zM239 333l-36 -219h133c90 0 130 71 130 123c0 63 -53 96 -137 96h-90z" />
    <glyph glyph-name="afii10046" unicode="&#x42c;" horiz-adv-x="634" 
d="M140 682h147l-32 -235h81c247 0 280 -131 280 -208c0 -84 -49 -239 -272 -239h-300zM239 333l-36 -219h133c90 0 130 71 130 123c0 63 -53 96 -137 96h-90z" />
    <glyph glyph-name="afii10047" unicode="&#x42d;" horiz-adv-x="688" 
d="M58 16l24 126c52 -16 105 -25 165 -25c159 0 240 84 273 170h-282l35 114h264c-8 101 -81 164 -194 164c-71 0 -137 -20 -223 -66l23 148c74 31 138 44 213 44c198 0 332 -126 332 -312c0 -229 -182 -388 -445 -388c-60 0 -117 8 -185 25z" />
    <glyph glyph-name="afii10048" unicode="&#x42e;" horiz-adv-x="1112" 
d="M1076 380c0 -235 -167 -389 -393 -389c-190 0 -331 120 -343 294h-111l-40 -285h-145l96 682h145l-40 -283h105c40 173 192 292 390 292c199 0 336 -128 336 -311zM926 370c0 113 -82 195 -196 195c-132 0 -241 -113 -241 -250c0 -117 80 -198 195 -198
c135 0 242 112 242 253z" />
    <glyph glyph-name="afii10049" unicode="&#x42f;" horiz-adv-x="677" 
d="M376 682h286l-101 -682h-145l41 247h-47c-43 0 -113 -36 -174 -118l-97 -129h-190l131 167c49 63 101 103 148 118c-47 25 -116 81 -116 177c0 116 91 220 264 220zM473 353l27 215h-102c-93 0 -137 -53 -137 -112c0 -66 47 -103 123 -103h89z" />
    <glyph glyph-name="afii10065" unicode="&#x430;" horiz-adv-x="552" 
d="M521 447l-63 -447h-135l6 42c-44 -35 -84 -51 -131 -51c-92 0 -159 81 -159 195c0 132 84 276 329 276c57 0 97 -4 153 -15zM342 132l30 216c-168 17 -193 -113 -193 -169c0 -55 25 -87 66 -87c31 0 66 14 97 40z" />
    <glyph glyph-name="afii10066" unicode="&#x431;" horiz-adv-x="577" 
d="M324 352c-55 0 -129 -36 -129 -152c0 -53 26 -99 84 -99c70 0 127 69 127 155c0 56 -32 96 -82 96zM550 276c0 -151 -121 -285 -287 -285c-124 0 -213 86 -213 233c0 128 63 436 370 471l166 19l-36 -129l-78 -3c-97 -4 -212 -27 -263 -203c67 75 120 83 178 83
c80 0 163 -73 163 -186z" />
    <glyph glyph-name="afii10067" unicode="&#x432;" horiz-adv-x="530" 
d="M30 0l64 425c44 21 145 37 190 37c103 0 210 -21 210 -108c0 -70 -67 -106 -114 -113c57 -15 101 -50 101 -113c0 -78 -68 -128 -173 -128h-278zM219 362l-13 -93l73 7c44 4 74 23 74 55c0 36 -30 47 -71 47c-21 0 -47 -11 -63 -16zM192 186l-15 -102h76
c64 0 87 35 87 68c0 25 -36 47 -70 47c-22 0 -61 -6 -78 -13z" />
    <glyph glyph-name="afii10068" unicode="&#x433;" horiz-adv-x="405" 
d="M441 454l-29 -112h-199l-48 -342h-135l64 454h347z" />
    <glyph glyph-name="afii10069" unicode="&#x434;" horiz-adv-x="552" 
d="M521 460l-58 -411c-34 -235 -172 -290 -289 -290c-79 0 -157 24 -174 53v133c28 -33 93 -60 174 -60c85 0 159 78 159 158c-39 -35 -97 -43 -139 -43c-95 0 -158 70 -158 188c0 146 90 272 311 272h174zM340 136l30 210c-114 9 -196 -44 -196 -155c0 -60 31 -91 79 -91
c30 0 62 10 87 36z" />
    <glyph glyph-name="afii10070" unicode="&#x435;" horiz-adv-x="510" 
d="M468 208h-297c-7 -74 39 -117 104 -117c42 0 94 16 168 46l-24 -113c-56 -21 -111 -33 -158 -33c-138 0 -226 87 -226 221c0 139 109 250 246 250c142 0 219 -109 187 -254zM184 286h159c8 49 -19 83 -65 83c-44 0 -74 -26 -94 -83z" />
    <glyph glyph-name="afii10072" unicode="&#x436;" horiz-adv-x="868" 
d="M419 454h135l-24 -173h11c31 0 67 5 98 55l73 118h156l-78 -123c-39 -60 -77 -87 -98 -98c36 -17 59 -52 86 -107l61 -126h-145l-47 102c-27 59 -66 79 -119 79h-12l-26 -181h-135l26 181h-12c-53 0 -98 -16 -142 -83l-65 -98h-163l79 109c35 49 100 113 148 127
c-27 19 -47 48 -67 105l-39 113h143l39 -118c17 -50 51 -55 93 -55z" />
    <glyph glyph-name="afii10073" unicode="&#x437;" horiz-adv-x="459" 
d="M138 269h35c73 0 93 17 93 46s-29 37 -85 37c-20 0 -79 -8 -109 -20l22 103c43 15 85 27 152 27c105 0 180 -43 180 -110c0 -71 -66 -108 -112 -119c34 -14 92 -46 92 -101c0 -109 -111 -141 -234 -141c-26 0 -118 14 -161 36l22 101c36 -19 83 -27 120 -27
c46 0 93 8 93 49c0 29 -38 37 -99 37h-26z" />
    <glyph glyph-name="afii10074" unicode="&#x438;" horiz-adv-x="552" 
d="M521 454l-64 -454h-135l35 241l-265 -241h-62l64 454h135l-33 -235l248 235h77z" />
    <glyph glyph-name="afii10075" unicode="&#x439;" horiz-adv-x="552" 
d="M521 454l-64 -454h-135l35 241l-265 -241h-62l64 454h135l-33 -235l248 235h77zM251 493l89 172h161l-177 -172h-73z" />
    <glyph glyph-name="afii10076" unicode="&#x43a;" horiz-adv-x="549" 
d="M28 0l64 454h135l-26 -173h27c31 0 67 5 98 55l73 118h156l-78 -122c-39 -60 -86 -97 -107 -108c36 -17 68 -43 95 -98l61 -126h-145l-47 102c-27 59 -66 79 -119 79h-25l-27 -181h-135z" />
    <glyph glyph-name="afii10077" unicode="&#x43b;" horiz-adv-x="488" 
d="M-42 -1l285 463h100l120 -462h-146l-57 252h-3l-146 -252z" />
    <glyph glyph-name="afii10078" unicode="&#x43c;" horiz-adv-x="732" 
d="M126 454h126l112 -242l198 242h116l-31 -454h-139l19 253l-194 -253l-118 262l-57 -262h-135z" />
    <glyph glyph-name="afii10079" unicode="&#x43d;" horiz-adv-x="567" 
d="M94 454h135l-24 -173h172l24 173h135l-64 -454h-135l26 181h-172l-26 -181h-135z" />
    <glyph glyph-name="afii10080" unicode="&#x43e;" horiz-adv-x="563" 
d="M522 248c0 -145 -112 -257 -258 -257c-129 0 -229 96 -229 219c0 138 118 252 262 252c130 0 225 -84 225 -214zM382 252c0 60 -36 100 -91 100c-88 0 -116 -104 -116 -150c0 -69 50 -101 90 -101c78 0 117 88 117 151z" />
    <glyph glyph-name="afii10081" unicode="&#x43f;" horiz-adv-x="562" 
d="M229 454l-8 -51c55 42 100 59 155 59c105 0 133 -88 130 -181l-39 -281h-135l38 271c6 44 -14 91 -50 91c-31 0 -68 -21 -114 -70l-41 -292h-135l64 454h135z" />
    <glyph glyph-name="afii10082" unicode="&#x440;" horiz-adv-x="583" 
d="M277 542l-13 -91c28 7 59 11 84 11c119 0 199 -79 199 -198c0 -152 -126 -273 -285 -273c-23 0 -37 3 -61 9l-32 -230h-135l72 515c-75 -56 -78 -97 -102 -97c-5 0 -8 4 -8 9c0 16 30 104 123 179l23 166h135zM251 356l-34 -246c16 -7 24 -9 41 -9c114 0 149 95 149 160
c0 64 -37 101 -105 101c-15 0 -32 -2 -51 -6z" />
    <glyph glyph-name="afii10083" unicode="&#x441;" horiz-adv-x="469" 
d="M451 446l-17 -122c-27 10 -43 15 -56 18c-14 2 -25 2 -42 2c-91 0 -161 -60 -161 -139c0 -66 43 -104 118 -104c41 0 68 6 129 30l-16 -123c-39 -10 -95 -17 -140 -17c-136 0 -231 90 -231 219c0 143 127 252 291 252c44 0 97 -7 125 -16z" />
    <glyph glyph-name="afii10084" unicode="&#x442;" horiz-adv-x="458" 
d="M488 454l-22 -112h-150l-48 -342h-135l48 342h-165l27 112h445z" />
    <glyph glyph-name="afii10085" unicode="&#x443;" horiz-adv-x="490" 
d="M510 454l-330 -684h-142l132 272l-145 412h135l89 -265l120 265h141z" />
    <glyph glyph-name="afii10086" unicode="&#x444;" horiz-adv-x="786" 
d="M483 332l-32 -231h42c97 0 132 95 132 160c0 64 -40 93 -87 93c-15 0 -33 -7 -55 -22zM269 -230l35 248c-24 -19 -58 -27 -86 -27c-108 0 -182 71 -182 190c0 152 119 273 255 273h74l32 228h135l-35 -255c24 19 58 27 86 27c108 0 182 -71 182 -190
c0 -152 -119 -273 -255 -273h-76l-30 -221h-135zM321 123l32 231h-42c-97 0 -132 -95 -132 -160c0 -64 40 -93 87 -93c15 0 33 7 55 22z" />
    <glyph glyph-name="afii10087" unicode="&#x445;" horiz-adv-x="531" 
d="M552 454l-198 -232l134 -222h-148l-74 142l-117 -142h-170l215 238l-130 216h149l68 -133l105 133h166z" />
    <glyph glyph-name="afii10088" unicode="&#x446;" horiz-adv-x="583" 
d="M94 454h135l-50 -354h172l50 354h135l-50 -354h97l-35 -221h-112l17 121h-423z" />
    <glyph glyph-name="afii10089" unicode="&#x447;" horiz-adv-x="523" 
d="M492 454l-64 -454h-135l23 161c-39 -11 -65 -17 -112 -17c-110 0 -170 75 -170 153c0 11 1 55 7 81l18 76h132l-15 -61c-8 -34 -14 -62 -14 -71c0 -53 23 -82 68 -82c57 0 80 6 99 14l28 200h135z" />
    <glyph glyph-name="afii10090" unicode="&#x448;" horiz-adv-x="812" 
d="M320 100l50 354h135l-50 -354h141l50 354h135l-62 -454h-689l64 454h135l-50 -354h141z" />
    <glyph glyph-name="afii10091" unicode="&#x449;" horiz-adv-x="833" 
d="M320 100l50 354h135l-50 -354h141l50 354h135l-50 -354h97l-35 -221h-112l17 121h-668l64 454h135l-50 -354h141z" />
    <glyph glyph-name="afii10092" unicode="&#x44a;" horiz-adv-x="604" 
d="M105 0l62 354h-178l72 100h248l-33 -163c33 26 74 52 129 52c122 0 184 -83 184 -164c0 -100 -98 -179 -258 -179h-226zM258 193l-17 -93h75c88 0 125 42 125 86c0 37 -26 68 -75 68c-39 0 -89 -18 -108 -61z" />
    <glyph glyph-name="afii10093" unicode="&#x44b;" horiz-adv-x="780" 
d="M30 0l70 454h127l-26 -163c33 26 74 52 129 52c122 0 184 -83 184 -164c0 -100 -98 -179 -258 -179h-226zM183 193l-17 -93h75c88 0 125 42 125 86c0 37 -26 68 -75 68c-39 0 -89 -18 -108 -61zM749 454l-64 -454h-135l64 454h135z" />
    <glyph glyph-name="afii10094" unicode="&#x44c;" horiz-adv-x="529" 
d="M30 0l70 454h127l-26 -163c33 26 74 52 129 52c122 0 184 -83 184 -164c0 -100 -98 -179 -258 -179h-226zM183 193l-17 -93h75c88 0 125 42 125 86c0 37 -26 68 -75 68c-39 0 -89 -18 -108 -61z" />
    <glyph glyph-name="afii10095" unicode="&#x44d;" horiz-adv-x="479" 
d="M22 7l17 122c42 -15 61 -20 98 -20c69 0 125 34 149 85h-168l21 78h157c-10 51 -51 80 -116 80c-41 0 -68 -6 -129 -30l16 123c39 10 95 17 140 17c136 0 231 -90 231 -219c0 -143 -127 -252 -291 -252c-44 0 -97 7 -125 16z" />
    <glyph glyph-name="afii10096" unicode="&#x44e;" horiz-adv-x="783" 
d="M742 248c0 -145 -112 -257 -258 -257c-124 0 -221 89 -228 206h-63l-28 -197h-135l64 454h135l-25 -179h60c30 107 132 187 253 187c130 0 225 -84 225 -214zM602 252c0 60 -36 100 -91 100c-88 0 -116 -104 -116 -150c0 -69 50 -101 90 -101c78 0 117 88 117 151z" />
    <glyph glyph-name="afii10097" unicode="&#x44f;" horiz-adv-x="556" 
d="M525 454l-64 -454h-135l23 156h-38c-56 0 -85 -21 -133 -91l-45 -65h-155l58 83c30 43 59 85 126 105c-63 23 -98 76 -98 121c0 103 94 145 226 145h235zM375 354h-66c-68 0 -104 -23 -104 -64c0 -40 30 -58 78 -58h76z" />
    <glyph glyph-name="Euro" unicode="&#x20ac;" horiz-adv-x="531" 
d="M546 658l-17 -124c-18 21 -55 41 -118 41c-80 0 -127 -40 -151 -117h228l-43 -89h-208c-1 -7 -3 -16 -4 -26c-2 -10 -3 -22 -4 -30h188l-43 -89h-146c2 -78 41 -116 118 -116c59 0 103 18 128 38l-17 -123c-20 -14 -72 -31 -150 -31c-138 0 -214 72 -216 232h-77l43 89
h37c0 8 1 18 3 30c1 10 3 18 5 26h-68l43 89h45c44 143 132 233 284 233c71 0 122 -19 140 -33z" />
  </font>
</defs>
</svg>
